# xmcd
#
# Track frame offsets:
#	150
#	16751
#	31667
#	44910
#	55626
#	72353
#	84408
#	103743
#	119576
#	140424
#	162384
#	172803
#
# Disc length: 2528 seconds
#
# Revision: 0
# Processed by: cddbd v1.5.2PL0 Copyright (c) Steve Scherf et al.
# Submitted via: dBpowerAMP V4.0
#
DISCID=9a09de0c
DTITLE=World's Greatest Fishing Band - Papa Was a Fishin' Man - Saltwater
DYEAR=1900
DGENRE=Country
TTITLE0=Hooked on Hookin' up
TTITLE1=Headin Down to Baja
TTITLE2=Fish Hard
TTITLE3=Sunrise Bite
TTITLE4=Doctor's Orders
TTITLE5=Wahoo Willie and Sheephead Sam
TTITLE6=Cottage by the Bay
TTITLE7=Biggest Fishing Hole in the World
TTITLE8=Bad to the Bonefish
TTITLE9=King of the Surf (Instr.)
TTITLE10=Too Much Beer Not Enough Bait
TTITLE11=Wahoo Willie (reprise)
EXTD=
EXTT0=
EXTT1=
EXTT2=
EXTT3=
EXTT4=
EXTT5=
EXTT6=
EXTT7=
EXTT8=
EXTT9=
EXTT10=
EXTT11=
PLAYORDER=
